<mxfile host="app.diagrams.net" modified="2021-10-16T08:36:45.732Z" agent="5.0 (Windows NT 10.0; Win64; x64) AppleWebKit/537.36 (KHTML, like Gecko) Chrome/94.0.4606.81 Safari/537.36" etag="Ln8IrSFhviVYjt92z0uk" version="15.5.4" type="github">
  <diagram id="2SSNEsq4esmSAQUs068s" name="Page-1">
    <mxGraphModel dx="1422" dy="737" grid="1" gridSize="10" guides="1" tooltips="1" connect="1" arrows="1" fold="1" page="1" pageScale="1" pageWidth="827" pageHeight="1169" math="0" shadow="0">
      <root>
        <mxCell id="0" />
        <mxCell id="1" parent="0" />
        <mxCell id="ZulyMPoIiw2x3DsBoTpT-1" value="" style="html=1;verticalLabelPosition=bottom;labelBackgroundColor=#ffffff;verticalAlign=top;shadow=0;dashed=0;strokeWidth=1;shape=mxgraph.ios7.misc.ipad7inch;strokeColor=#c0c0c0;" vertex="1" parent="1">
          <mxGeometry x="230" y="100" width="366" height="549" as="geometry" />
        </mxCell>
        <mxCell id="ZulyMPoIiw2x3DsBoTpT-3" value="Weboldal generálás" style="ellipse;whiteSpace=wrap;html=1;aspect=fixed;" vertex="1" parent="1">
          <mxGeometry x="318" y="279.5" width="190" height="190" as="geometry" />
        </mxCell>
        <mxCell id="ZulyMPoIiw2x3DsBoTpT-4" value="Wedding Crew" style="rounded=0;whiteSpace=wrap;html=1;" vertex="1" parent="1">
          <mxGeometry x="249" y="150" width="330" height="60" as="geometry" />
        </mxCell>
      </root>
    </mxGraphModel>
  </diagram>
</mxfile>
